<?xml version="1.0" encoding="utf-8"?>
<!-- Generator: Adobe Illustrator 18.0.0, SVG Export Plug-In . SVG Version: 6.00 Build 0)  -->
<!DOCTYPE svg PUBLIC "-//W3C//DTD SVG 1.1//EN" "http://www.w3.org/Graphics/SVG/1.1/DTD/svg11.dtd">
<svg version="1.1" id="Layer_1" xmlns="http://www.w3.org/2000/svg" xmlns:xlink="http://www.w3.org/1999/xlink" x="0px" y="0px"
	 viewBox="0 0 1879.8 170" enable-background="new 0 0 1879.8 170" xml:space="preserve">
<path fill="#FFFFFF" d="M0,57c0-10,0-20,0-30c59.3-1.6,118.6-3.4,177.9-4.7c103-2.3,205.9-4.8,308.9-6.3
	c152.9-2.3,305.9-4.3,458.9-5.6c143.5-1.2,286.9-1.1,430.4-2c77-0.5,154-1.7,230.9-3c79.6-1.3,159.3-3,238.9-4.5
	c4.3-0.1,8.6-0.6,12.9-0.9c7,0,14,0,21,0c0,19,0,38,0,57c-84.7,20-170.2,36.4-256.2,49.7c-61,9.4-122.2,18-183.5,25.2
	c-58.2,6.8-116.6,12.4-175,16.6c-55.3,3.9-110.8,5.3-166.2,7.8c-2,0.1-3.9,0.4-5.9,0.6c-37.3,0-74.7,0-112,0
	c-2.6-0.2-5.3-0.6-7.9-0.7c-74.4-3.1-148.8-5.1-223.1-9.4c-66.6-3.9-133.2-9.7-199.7-15.9c-60-5.6-119.9-12.2-179.8-19.3
	C316.2,105.2,262.1,98,208.1,90C138.6,79.6,69.3,68,0,57z"/>
<rect x="0" fill="#FFFFFF" width="1879.8" height="34"/>
</svg>
