<?xml version="1.0" encoding="utf-8"?>
<!-- Generator: Adobe Illustrator 18.0.0, SVG Export Plug-In . SVG Version: 6.00 Build 0)  -->
<!DOCTYPE svg PUBLIC "-//W3C//DTD SVG 1.1//EN" "http://www.w3.org/Graphics/SVG/1.1/DTD/svg11.dtd">
<svg version="1.1" id="Layer_1" xmlns="http://www.w3.org/2000/svg" xmlns:xlink="http://www.w3.org/1999/xlink" x="0px" y="0px"
	 viewBox="0 0 1879.8 723.9" enable-background="new 0 0 1879.8 723.9" xml:space="preserve">
<path fill="#32236F" d="M1879.8,0c0,241.3,0,482.6,0,723.9c-626.6,0-1253.2,0-1879.8,0C0,482.6,0,241.3,0,0c18.8,3.4,37.6,7,56.5,10
	c48.3,7.6,96.6,15.3,145,22.4c42.8,6.3,85.7,12.1,128.6,17.6c43.8,5.5,87.6,10.5,131.4,15.4c38.1,4.2,76.2,8.2,114.3,11.6
	c42.8,3.9,85.6,7.4,128.5,10.3c48.9,3.3,97.7,6.4,146.7,8.6c42.6,2,85.3,3,127.9,3.8c77,1.5,154,0.3,230.8-4.4
	c40.1-2.5,80.1-4.8,120.1-8.5c48.4-4.5,96.7-9.7,145-15.7c48.2-6,96.4-12.4,144.3-20.5c66.4-11.2,132.6-24.1,198.8-36.6
	C1838.7,10,1859.2,4.7,1879.8,0z"/>
</svg>
