<?xml version="1.0" encoding="utf-8"?>
<!-- Generator: Adobe Illustrator 18.0.0, SVG Export Plug-In . SVG Version: 6.00 Build 0)  -->
<!DOCTYPE svg PUBLIC "-//W3C//DTD SVG 1.1//EN" "http://www.w3.org/Graphics/SVG/1.1/DTD/svg11.dtd">
<svg version="1.1" id="Layer_1" xmlns="http://www.w3.org/2000/svg" xmlns:xlink="http://www.w3.org/1999/xlink" x="0px" y="0px"
	 viewBox="0 0 1883.8 514" enable-background="new 0 0 1883.8 514" xml:space="preserve">
<path fill="#32236F" d="M1084.9,497.9c-32,0-64,0-96,0c-3.5-0.3-6.9-0.7-10.4-0.8c-42.1-1.2-84.3-2-126.4-3.7
	c-39.6-1.6-79.2-4.2-118.8-6.6c-25.1-1.5-50.2-3.3-75.3-5.3c-29.2-2.3-58.4-4.9-87.6-7.6c-28.5-2.6-57-5.3-85.5-8.4
	c-31.3-3.3-62.5-6.9-93.8-10.6c-33.2-4-66.4-8-99.6-12.4c-37.1-4.9-74.2-10.1-111.2-15.6c-41.6-6.2-83.2-12.9-124.8-19.5
	C37,404.4,18.5,401.1,0,398c0-33.3,0-66.7,0-100c3.6,0.3,7.3,0.8,11,0.9c53.8,2,107.5,4.6,161.3,5.8c91.4,2.1,182.9,1.9,274.4-0.3
	c91.3-2.2,182.5-6,273.5-13.3c46.8-3.7,93.6-7.3,140.3-12.5c53.9-6,107.7-13.2,161.4-20.6c59.5-8.2,118.5-19.6,177.2-32.3
	c115.9-25.3,230.1-57,342.9-93.9c112.3-36.7,223-77.6,331.4-124.8c1.9-0.8,3.7-2,5.5-3.1c0.3,1.3,1,2.7,1,4c0,59.3,0,118.7,0,178
	c0,70.7,0,141.3,0,212c-8.1,1.8-16.2,3.8-24.3,5.4c-67.9,13.2-135.7,27-203.7,39.3c-41.9,7.6-84.1,13.4-126.2,19.3
	c-36.1,5.1-72.2,9.6-108.4,13.6c-36.2,4-72.5,7.4-108.8,10.4c-37.3,3-74.7,5.7-112.1,7.6c-35.3,1.8-70.6,2.4-105.8,3.6
	C1088.4,497.3,1086.7,497.7,1084.9,497.9z"/>
</svg>
